<svg width="183" height="40" viewBox="0 0 183 40" fill="none" xmlns="http://www.w3.org/2000/svg">
  <path d="M58.4592 37.8501V39H53.1272V37.8501H58.4592ZM53.4055 28.3359V39H51.9919V28.3359H53.4055ZM66.8528 37.8501V39H61.2058V37.8501H66.8528ZM61.4915 28.3359V39H60.0779V28.3359H61.4915ZM66.1057 32.9209V34.0708H61.2058V32.9209H66.1057ZM66.7795 28.3359V29.4932H61.2058V28.3359H66.7795ZM72.551 29.2808L69.0208 39H67.5779L71.6428 28.3359H72.573L72.551 29.2808ZM75.51 39L71.9724 29.2808L71.9504 28.3359H72.8806L76.9602 39H75.51ZM75.3269 35.0522V36.2095H69.3357V35.0522H75.3269ZM81.3767 28.3359V39H79.9851V28.3359H81.3767ZM84.8044 28.3359V29.4932H76.5647V28.3359H84.8044ZM93.3518 32.9209V34.0708H87.5803V32.9209H93.3518ZM87.8 28.3359V39H86.3865V28.3359H87.8ZM94.5823 28.3359V39H93.176V28.3359H94.5823ZM103.869 37.8501V39H98.2224V37.8501H103.869ZM98.5081 28.3359V39H97.0945V28.3359H98.5081ZM103.122 32.9209V34.0708H98.2224V32.9209H103.122ZM103.796 28.3359V29.4932H98.2224V28.3359H103.796ZM105.62 28.3359H109.15C109.951 28.3359 110.627 28.458 111.179 28.7021C111.736 28.9463 112.158 29.3076 112.446 29.7861C112.739 30.2598 112.885 30.8433 112.885 31.5366C112.885 32.0249 112.785 32.4717 112.585 32.877C112.39 33.2773 112.107 33.6191 111.736 33.9023C111.369 34.1807 110.93 34.3882 110.417 34.5249L110.022 34.6787H106.704L106.689 33.5288H109.194C109.702 33.5288 110.124 33.4409 110.461 33.2651C110.798 33.0845 111.052 32.8428 111.223 32.54C111.394 32.2373 111.479 31.9028 111.479 31.5366C111.479 31.1265 111.399 30.7676 111.238 30.46C111.076 30.1523 110.823 29.9155 110.476 29.7495C110.134 29.5786 109.692 29.4932 109.15 29.4932H107.033V39H105.62V28.3359ZM111.853 39L109.26 34.166L110.732 34.1587L113.362 38.9121V39H111.853ZM122.231 28.3359V39H120.84V28.3359H122.231ZM125.659 28.3359V29.4932H117.419V28.3359H125.659ZM130.603 29.2808L127.073 39H125.63L129.695 28.3359H130.625L130.603 29.2808ZM133.562 39L130.024 29.2808L130.002 28.3359H130.932L135.012 39H133.562ZM133.379 35.0522V36.2095H127.387V35.0522H133.379ZM144.643 28.3359V39H143.222L137.854 30.7749V39H136.44V28.3359H137.854L143.244 36.583V28.3359H144.643ZM155.351 28.3359V39H153.93L148.562 30.7749V39H147.148V28.3359H148.562L153.952 36.583V28.3359H155.351ZM164.631 37.8501V39H158.984V37.8501H164.631ZM159.27 28.3359V39H157.856V28.3359H159.27ZM163.884 32.9209V34.0708H158.984V32.9209H163.884ZM164.558 28.3359V29.4932H158.984V28.3359H164.558ZM166.382 28.3359H169.912C170.713 28.3359 171.389 28.458 171.941 28.7021C172.497 28.9463 172.92 29.3076 173.208 29.7861C173.501 30.2598 173.647 30.8433 173.647 31.5366C173.647 32.0249 173.547 32.4717 173.347 32.877C173.152 33.2773 172.868 33.6191 172.497 33.9023C172.131 34.1807 171.692 34.3882 171.179 34.5249L170.783 34.6787H167.466L167.451 33.5288H169.956C170.464 33.5288 170.886 33.4409 171.223 33.2651C171.56 33.0845 171.814 32.8428 171.985 32.54C172.156 32.2373 172.241 31.9028 172.241 31.5366C172.241 31.1265 172.16 30.7676 171.999 30.46C171.838 30.1523 171.584 29.9155 171.238 29.7495C170.896 29.5786 170.454 29.4932 169.912 29.4932H167.795V39H166.382V28.3359ZM172.615 39L170.022 34.166L171.494 34.1587L174.123 38.9121V39H172.615ZM175.764 28.3359L178.532 33.6899L181.308 28.3359H182.912L179.236 35.0156V39H177.822V35.0156L174.145 28.3359H175.764Z" fill="#979797"/>
  <g clip-path="url(#clip0_0_1)">
    <path d="M34.369 38.8041C33.8303 38.8647 33.2094 38.7587 32.6034 38.6149C30.95 38.2288 29.379 38.8268 27.7855 39.0691C27.3964 39.1296 26.9924 39.2583 26.6483 39.0615C25.7879 38.5846 24.98 38.8722 24.172 39.1599C23.6109 39.3643 23.1096 39.4097 22.5485 39.1296C21.6059 38.6527 20.8353 39.1977 20.1171 39.7201C19.6533 40.0607 19.384 40.144 18.8603 39.7049C18.0822 39.0463 17.1919 38.6527 16.0847 39.2659C15.359 39.6671 14.6109 38.9934 13.8553 38.9025C13.6234 38.8722 13.3615 38.736 13.1595 38.842C11.9176 39.4551 10.7356 38.9252 9.52361 38.7057C8.30416 38.4862 7.07722 38.4483 5.83533 38.7133C4.44381 39.0161 3.04481 38.8571 1.75054 38.2364C0.164507 37.4718 -0.127264 35.5036 0.0373246 34.088C0.231838 32.4453 0.815379 31.0524 2.31164 30.1667C2.73807 29.9169 2.58097 29.3416 2.46875 28.9934C2.12461 27.926 2.54356 27.063 3.22436 26.412C5.06476 24.6406 5.71563 22.4907 5.768 19.985C5.82037 17.3507 5.16949 14.898 4.18944 12.5134C3.97997 12.0062 4.09219 11.8397 4.45129 11.605C4.6458 11.4763 4.81039 11.2946 5.00491 11.1584C5.38645 10.8707 5.43134 10.689 5.07224 10.2424C4.39144 9.42485 3.76301 8.53158 3.59094 7.41879C3.25428 5.17806 5.23683 3.79275 6.77797 3.4521C7.61588 3.27042 8.46875 3.10388 9.31413 3.4521C9.81538 3.65649 10.167 3.46724 10.5934 3.17958C12.561 1.86239 14.6333 0.764741 16.975 0.26512C19.6159 -0.295062 22.152 0.0985794 24.6283 1.08268C26.0348 1.64286 27.2992 2.43015 28.5111 3.32341C29.147 3.78518 29.8129 3.42939 30.4712 3.33855C32.4538 3.05846 35.7231 4.38321 35.379 7.37337C35.2593 8.40289 34.7431 9.25831 34.1221 10.0077C33.6059 10.6285 33.6134 11.0297 34.3017 11.4158C34.9451 11.7716 34.9825 12.2106 34.6982 12.8995C33.7406 15.2386 33.1121 17.6535 33.2244 20.2197C33.3291 22.5664 33.9725 24.6784 35.7081 26.3363C36.5461 27.1311 36.8004 28.1077 36.5461 29.1977C36.4114 29.7731 36.561 30.091 37.0323 30.3862C38.9999 31.6277 39.5909 35.5187 38.3416 37.3279C37.6608 38.3121 36.5311 38.6981 35.349 38.8117C35.0573 38.8268 34.758 38.8041 34.369 38.8041ZM24.4114 37.1614C24.9351 37.1614 25.4663 37.1614 26.0498 37.1614C25.2268 36.0638 25.3166 35.3219 26.2144 34.8828C26.6259 34.6784 26.9027 34.8298 27.1645 35.0872C27.3815 35.2992 27.576 35.5868 27.4488 35.8896C27.2992 36.2681 26.9326 36.0335 26.6558 36.0638C26.566 36.0713 26.4762 36.0562 26.3864 36.0713C26.2443 36.0865 26.0498 36.0713 26.0947 36.2984C26.1246 36.4423 26.2518 36.5937 26.4089 36.5709C26.5735 36.5482 26.753 36.4725 26.8877 36.3666C27.0523 36.2379 27.2244 36.1697 27.3515 36.3438C27.4937 36.5331 27.3066 36.6694 27.1944 36.798C27.0747 36.9343 26.7755 36.9494 26.8727 37.2598C27.2543 37.3204 27.6134 37.3052 28.0099 37.2295C29.2293 37.0024 30.4338 36.6996 31.6982 36.7602C32.6184 36.8056 33.5236 36.9949 34.4513 36.9722C36.95 36.9192 37.2717 36.6012 37.1371 34.0728C37.0697 32.8238 36.5835 31.7943 35.379 31.4612C34.3391 31.1735 34.2792 30.6815 34.5934 29.8563C34.6533 29.6898 34.6308 29.493 34.6907 29.3264C34.975 28.471 34.8328 27.7519 34.1371 27.1387C33.763 26.8056 33.4114 26.4498 33.1346 26.0183C32.0049 24.2621 31.5261 22.3015 31.4288 20.2651C31.3091 17.9714 31.7805 15.7534 32.581 13.6111C32.8503 12.8768 32.9999 12.2182 32.1096 11.8018C31.9076 11.7034 31.7655 11.4763 31.5934 11.3249C31.3017 11.0675 31.2942 10.9086 31.5785 10.5679C32.2144 9.80335 32.7979 8.97822 33.3066 8.1228C33.6957 7.46421 34.0473 6.72992 33.3291 5.99563C32.4538 5.09479 30.8079 4.75414 29.7306 5.43545C29.1545 5.79881 28.7879 5.66255 28.3316 5.30676C27.3141 4.5119 26.2293 3.80789 25.0772 3.225C22.2044 1.76398 19.2493 1.36277 16.1296 2.3166C14.0947 2.93734 12.3441 4.06527 10.6533 5.31432C10.1969 5.65498 9.81538 5.73825 9.29169 5.42788C8.07972 4.73143 6.91264 5.07965 5.86525 5.80638C5.24431 6.23787 5.13209 6.89646 5.47623 7.62318C5.87274 8.46345 6.39643 9.22046 6.93508 9.96232C7.75802 11.0751 7.74306 11.3931 6.53109 12.1273C6.11214 12.3772 6.08221 12.5513 6.23932 12.9676C7.17448 15.4809 7.7281 18.0622 7.55603 20.7723C7.41388 23.0055 6.7256 25.0191 5.23683 26.7072C4.51114 27.5323 3.86775 28.3575 4.31663 29.5611C4.42885 29.8639 4.42136 30.2197 4.56351 30.4922C4.85528 31.0448 4.53358 31.2114 4.12211 31.2946C2.78296 31.5672 2.15453 32.4831 1.86276 33.7398C1.34655 35.9578 2.10964 36.9116 4.36151 36.9722C5.26675 36.9949 6.14206 36.8208 7.03234 36.7753C8.4463 36.6996 9.81538 36.9419 11.1845 37.222C12.2019 37.4339 12.2169 37.4264 12.2094 36.3438C12.2094 35.8291 12.187 35.3143 12.2244 34.8071C12.2393 34.5573 12.0224 34.1031 12.5012 34.1107C12.8677 34.1183 12.7331 34.527 12.763 34.7769C12.8528 35.5717 12.3291 36.7299 13.8777 36.6542C13.9002 36.6542 13.9301 36.6769 13.9451 36.6996C14.3865 37.5172 15.2543 37.6913 15.8977 37.4188C17.0273 36.9343 17.9775 37.2523 18.9351 37.6913C19.4214 37.9108 19.773 37.8881 20.2443 37.6459C21.0598 37.2295 21.9426 36.851 22.8777 37.3128C23.4538 37.6005 23.955 37.5475 24.4338 37.1463L24.4114 37.1614Z" fill="#72BF44"/>
    <path d="M9.18703 19.3792C9.02992 19.1975 8.83541 19.0461 8.81297 18.7887C8.798 18.5919 8.89526 18.4254 9.05985 18.3421C9.22444 18.2513 9.38154 18.3648 9.41147 18.5087C9.54613 19.2505 10.2045 18.5389 10.4663 18.9099C10.5112 18.978 10.5337 18.925 10.5636 18.8493C10.7506 18.4708 11.0574 18.3345 11.4015 18.5389C11.5287 18.6146 12.0673 18.6752 11.581 19.0386C11.3716 19.1975 11.4239 19.4473 11.4988 19.6215C11.8653 20.5223 11.596 21.3474 11.192 22.1196C10.8254 22.8311 11.0424 23.2853 11.5885 23.7395C11.9102 24.0121 12.3367 24.0802 12.6284 24.4133C12.8603 24.6707 12.9875 24.383 13.1446 24.1862C14.0499 23.0355 14.7157 21.6502 16.1746 21.0295C16.3616 20.9538 16.4364 20.6434 16.616 20.5071C16.7506 20.4012 16.8254 20.3785 16.7057 20.1968C16.0474 19.2505 15.4489 18.2816 14.4838 17.5851C13.3017 16.7297 12.9651 15.3671 13.4289 13.9591C13.6983 13.1415 13.9377 12.3164 14.1621 11.4837C14.4988 10.2422 14.2145 9.68958 12.9651 9.45491C12.3217 9.33379 12.4339 9.16725 12.7406 8.80389C12.8678 8.65249 12.9052 8.39511 13.0549 8.28156C14.0948 7.49428 13.8404 6.54802 13.414 5.57906C13.3092 5.34439 13.182 5.09458 13.414 4.92804C13.6309 4.77664 13.8853 4.94318 14.0723 5.08701C14.813 5.65476 14.8354 6.47989 14.6858 7.28232C14.611 7.66082 14.5885 7.87278 14.9252 8.10745C15.793 8.72062 15.8828 9.69715 15.9875 10.6434C16.0399 11.09 15.995 11.5518 16.0025 11.9984C16.0249 12.7933 16.1671 13.4065 17.1322 13.6487C17.7456 13.8001 18.2618 14.3376 18.8454 14.7236C18.8454 14.1635 18.7706 13.679 18.8678 13.2399C18.9426 12.9068 18.7032 12.1877 19.5935 12.4602C20.0349 12.5965 19.3466 11.7335 19.99 11.7713C20.3117 11.7865 20.6559 12.1423 20.9551 11.6805C21.1646 11.355 21.2768 10.9992 21.1721 10.651C20.7456 9.22024 21.6434 8.33455 22.4514 7.42615C22.7581 7.07793 22.8853 7.50185 22.9302 7.66839C23.0274 8.06203 23.1845 8.34212 23.5212 8.5995C24.0075 8.97043 23.5661 10.3557 22.9975 10.6964C22.1895 11.1733 21.3441 11.6048 20.9701 12.5738C20.8878 12.7857 20.7756 12.9598 20.9776 13.1339C21.7107 13.7774 21.3666 14.3906 20.9551 15.034C20.7307 15.3822 20.5287 15.7607 20.7007 16.1468C22.0324 16.3285 22.616 15.5185 23.1546 14.4965C23.7232 13.414 24.8379 12.6192 24.9202 11.2793C24.9501 10.757 25.01 10.28 25.3391 9.85612C25.5112 9.63659 25.7431 9.46248 25.9302 9.66687C26.1621 9.90911 26.3042 9.8107 26.5212 9.71986C27.419 9.33379 27.4564 9.36407 27.4713 10.3103C27.4938 11.7032 27.1047 12.3164 25.8105 12.6646C25.1372 12.8463 24.7706 13.3005 24.419 13.8152C24.0449 14.3754 23.6708 14.9356 23.3192 15.5109C22.9975 16.0484 23.2593 16.6237 23.8803 16.6086C24.6808 16.5859 24.8005 16.9492 24.8379 17.6457C24.8753 18.2891 25.5636 18.5011 26.0424 18.6298C26.9252 18.8645 26.7082 19.5306 26.4464 19.8486C26.192 20.1665 26.1621 20.1665 26.4913 20.3255C27.4339 20.7797 28.1671 21.3701 28.5037 22.4754C28.7057 23.1339 29.409 23.5957 30.0673 23.8909C30.7481 24.1862 31.399 24.4587 31.7282 25.2006C31.818 25.405 32.0499 25.5564 32.2444 25.685C32.5137 25.8592 32.7905 26.0257 32.6259 26.3815C32.4763 26.707 32.2519 27.0779 31.8329 26.9568C31.5262 26.8735 31.3541 26.9644 31.2419 27.1763C31.0997 27.4564 31.4514 27.4337 31.5561 27.5397C31.9975 27.9712 31.8404 28.6676 32.2818 29.084C31.6309 29.7047 32.6185 29.894 32.6559 30.3936C32.6933 30.8856 32.8803 31.2187 32.3566 31.5821C31.8479 31.9379 31.4589 32.1347 31.0249 31.5215C30.9277 31.3853 30.7556 31.302 30.5985 31.1884C30.4788 31.4685 30.389 31.8092 30.0823 31.9303C29.1097 32.3164 29.0723 33.2172 29.1022 34.0045C29.1397 34.9053 28.3915 34.7539 28.0175 34.9129C27.7032 35.0492 27.2843 34.5798 27.2768 34.118C27.2693 33.626 26.9701 33.3838 26.5736 33.1264C26.7456 34.0272 26.005 34.0196 25.5561 34.0045C25.0025 33.9894 24.591 33.6184 24.5461 32.9144C24.4489 31.3247 24.4564 31.0976 25.0549 30.2876C25.0249 30.2422 24.9726 30.1514 24.9576 30.1589C23.8504 30.5147 24.0449 29.5003 24.0973 29.1067C24.1945 28.3497 23.8504 28.2286 23.3491 27.7895C22.5636 27.1082 21.6359 26.2452 21.7332 24.9432C21.7855 24.2543 21.2918 23.6563 21.4339 22.9598C21.4713 22.7933 21.3067 22.7176 21.1571 22.6797C20.1172 22.3921 19.5187 21.6426 19.182 20.6737C18.9426 19.9697 18.6509 19.9015 18.2394 20.4996C17.7382 21.2187 16.7431 21.2566 16.2643 22.0212C15.9576 22.5132 15.7406 22.8841 16.5411 23.0128C16.6908 23.0355 16.9152 23.0658 16.8254 23.2324C16.6608 23.5427 16.8329 23.9742 16.4589 24.2013C16.2419 24.33 16.0698 24.2619 15.8903 24.1332C14.9701 23.5049 14.5362 23.5806 14.207 24.6555C13.8703 25.7607 13.7132 26.919 13.4813 28.062C13.4439 28.2588 13.4888 28.4254 13.7282 28.4481C13.9751 28.4784 14.0499 28.6071 13.9002 28.8039C13.7057 29.0613 13.399 29.2732 13.8853 29.5609C14.4314 29.8788 14.3342 29.2808 14.5436 29.1218C14.6334 29.0537 14.6933 28.9402 14.813 28.7963C15.0973 29.2732 15.3292 29.788 15.98 29.7426C16.0773 29.735 16.212 29.8258 16.2718 29.9091C16.6983 30.545 16.0848 32.4905 15.3591 32.8084C14.5511 33.1642 14.0948 32.8387 13.5711 31.5745C12.8155 31.7713 12.6958 32.9068 11.7007 32.8236C11.2594 32.7857 10.9601 32.6343 10.7656 32.2861C10.384 31.5897 9.8379 30.9084 10.1895 30.0378C10.3317 29.6896 9.92768 28.7131 11.005 29.2202C11.1247 29.2732 11.4763 28.925 11.6633 28.7131C12.6135 27.6381 12.4115 25.2838 11.2968 24.4133C10.399 23.7168 9.75561 22.763 8.9177 21.9984C8.14713 21.2869 8.5212 20.4087 8.61845 19.576C8.66334 19.1975 9.05237 19.6063 9.17955 19.3641C9.03741 19.4095 9.01496 19.4928 9.10474 19.5987C9.13466 19.6366 9.2394 19.6593 9.2394 19.6517C9.32169 19.5533 9.29177 19.4549 9.18703 19.3792ZM20.394 18.8947C20.0574 18.9099 19.7731 18.5844 19.5112 18.2967C19.3242 18.0847 19.1671 17.9031 18.8828 17.9939C18.5387 18.1074 18.7855 18.6222 18.419 18.7433C18.5835 18.8872 18.7257 19.0688 18.9202 19.1597C19.5187 19.4549 19.9975 19.031 20.394 18.8947ZM20.5511 17.9636C20.4838 17.4943 20.6035 16.8584 19.7656 17.1309C19.6085 17.1839 19.8703 16.5859 19.4888 16.9114C19.384 17.0022 19.3466 17.2142 19.3541 17.3732C19.3691 17.5548 19.4663 17.6987 19.7132 17.6003C20.1097 17.4337 20.2145 17.9712 20.5511 17.9636ZM11.9776 30.6737C11.9327 30.9235 11.3865 30.9462 11.6933 31.3171C11.7681 31.408 11.985 31.6048 12.1496 31.4307C12.389 31.1809 12.1945 30.9462 11.9776 30.6737ZM25.6309 10.7418C25.7805 11.2187 25.6833 11.9076 26.5212 11.9303C26.207 11.4912 25.7731 11.2263 25.6309 10.7418Z" fill="#72BF44"/>
    <path d="M16.5337 35.6472C16.3915 35.2762 16.2045 35.3595 16.0399 35.3974C15.8379 35.4503 15.5686 35.7229 15.4863 35.3141C15.4339 35.0416 15.7406 34.928 15.9352 34.8145C16.1596 34.6933 16.384 34.8372 16.601 34.9356C17.4015 35.3141 17.0349 36.0408 17.0349 36.601C17.0349 37.1385 16.4214 37.1082 16.0623 37.1309C15.6958 37.146 15.2918 36.9189 15.2768 36.442C15.2693 36.003 15.5012 35.7153 15.9651 35.6774C16.1372 35.6774 16.3092 35.6699 16.5337 35.6472Z" fill="#72BF44"/>
    <path d="M24.4264 37.1536C23.798 37.2444 23.3641 36.9265 23.1845 36.3739C23.0574 35.9575 23.0499 35.4428 23.4688 35.1248C23.8579 34.8296 24.2693 34.6782 24.7855 34.9507C25.2045 35.1778 25.3092 35.5563 25.3167 35.9045C25.3242 36.495 24.995 36.9492 24.4115 37.1536C24.4115 37.1612 24.4264 37.1536 24.4264 37.1536ZM24.2693 35.3595C23.9027 35.3443 23.7232 35.5109 23.7082 35.8894C23.6858 36.2603 23.7456 36.5328 24.1945 36.5783C24.6658 36.6313 24.6808 36.2073 24.6883 35.9954C24.6808 35.7834 24.7481 35.3292 24.2693 35.3595Z" fill="#72BF44"/>
    <path d="M22.1372 35.299C22.5112 34.8524 22.5711 34.1559 23.4165 34.0121C23.0873 35.0189 22.2569 35.7305 22.4065 36.7676C22.414 36.8281 22.2643 36.9493 22.1671 36.972C22.0399 37.0098 21.9277 36.9114 21.9277 36.7751C21.9501 35.7153 21.1272 35.034 20.7456 34.1029C21.6883 33.9591 21.6733 34.8675 22.1372 35.299Z" fill="#72BF44"/>
    <path d="M17.596 35.9197C17.3491 35.0264 17.8504 34.7766 18.5536 34.7918C19.3092 34.8069 19.4813 35.3141 19.3915 35.9727C19.3466 36.2982 19.5711 36.8887 19.1895 36.9038C18.606 36.9341 18.9426 36.3058 18.8454 35.9803C18.7781 35.7532 18.9576 35.352 18.5237 35.3747C18.1721 35.3898 18.217 35.7456 18.1496 35.9954C18.0598 36.3285 18.3815 36.9719 17.798 36.9114C17.3716 36.8735 17.7307 36.2377 17.596 35.9197Z" fill="#72BF44"/>
    <path d="M14.3342 35.844C14.4838 35.4957 14.1471 34.8447 14.596 34.8447C15.1421 34.8447 14.9102 35.5033 14.8953 35.8743C14.8803 36.2376 15.1721 36.9189 14.6035 36.8962C14.0798 36.8811 14.5212 36.1922 14.3342 35.844Z" fill="#72BF44"/>
    <path d="M20.394 18.8948C19.9975 19.031 19.5187 19.455 18.9202 19.1597C18.7332 19.0689 18.5835 18.8796 18.419 18.7434C18.7855 18.6298 18.5387 18.1075 18.8828 17.9939C19.1671 17.9031 19.3167 18.0848 19.5112 18.2967C19.7731 18.5844 20.0574 18.9099 20.394 18.8948Z" fill="#72BF44"/>
    <path d="M20.5511 17.9637C20.2145 17.9712 20.1022 17.4338 19.7207 17.5927C19.4738 17.6987 19.3691 17.5549 19.3616 17.3656C19.3541 17.2142 19.3915 16.9947 19.4963 16.9038C19.8778 16.5859 19.616 17.1764 19.7731 17.1234C20.6035 16.8584 20.4838 17.4943 20.5511 17.9637Z" fill="#72BF44"/>
    <path d="M11.9776 30.6737C12.1945 30.9462 12.389 31.1809 12.1571 31.4307C11.9925 31.6048 11.7681 31.408 11.7007 31.3172C11.3865 30.9538 11.9327 30.9235 11.9776 30.6737Z" fill="#72BF44"/>
    <path d="M25.6309 10.7418C25.7731 11.2263 26.207 11.4988 26.5212 11.9303C25.6833 11.9076 25.7731 11.2187 25.6309 10.7418Z" fill="#72BF44"/>
    <path d="M9.18703 19.3793C9.29177 19.4474 9.32169 19.5458 9.26933 19.6594C9.26933 19.6669 9.16459 19.6442 9.13466 19.6064C9.04489 19.5004 9.06733 19.4096 9.20948 19.3717L9.18703 19.3793Z" fill="#72BF44"/>
  </g>
  <path d="M141.279 4.01018C142.218 4.01018 143.157 4.0277 144.094 4.00142C144.503 3.99016 144.664 4.11155 144.622 4.52956C144.39 6.85362 144.339 9.18895 144.147 11.5168C144.054 12.6444 144.022 13.7958 144.225 14.9359C144.498 16.4778 145.572 16.7456 146.769 16.6167C147.892 16.4953 148.297 15.7156 148.439 14.7857C148.635 13.5004 148.759 12.2001 148.834 10.9023C148.957 8.78972 149.02 6.6734 149.091 4.55834C149.102 4.22794 149.225 4.12407 149.539 4.13033C151.537 4.16662 153.529 3.93884 155.53 4.00017C155.925 4.01268 156.029 4.13533 156.008 4.50703C155.899 6.47066 155.776 8.43303 155.664 10.3954C155.579 11.8647 155.462 13.3365 155.491 14.8145C155.517 16.1561 155.175 17.4427 154.471 18.5903C153.691 19.8594 152.473 20.5765 151.09 21.0471C148.987 21.7617 146.802 21.7617 144.635 21.649C142.789 21.5539 140.94 21.2661 139.335 20.2211C138.002 19.3538 137.196 18.1961 137.194 16.5091C137.189 13.9747 137.484 11.4604 137.621 8.93614C137.699 7.48814 137.616 6.03388 137.815 4.58963C137.872 4.17163 137.965 3.99516 138.403 4.00392C139.36 4.0252 140.319 4.01018 141.279 4.01018Z" fill="#727272"/>
  <path d="M52.7331 7.781C53.9225 6.22161 55.4987 5.18286 57.3153 4.52957C58.6148 4.0615 59.9682 3.78491 61.3703 3.74987C63.202 3.70357 65.011 3.87127 66.8188 4.12533C67.2345 4.18415 67.2533 4.48451 67.2395 4.7636C67.1794 5.99259 67.3847 7.20906 67.3847 8.4368C67.3847 8.98746 67.247 9.11762 66.7062 8.98246C65.4805 8.67834 64.2386 8.50438 62.9641 8.5244C60.6793 8.5607 58.9253 9.79219 58.2129 11.9723C57.3866 14.5004 59.1168 16.5867 61.6132 16.7719C63.2758 16.8945 64.9059 16.7118 66.5071 16.265C66.9653 16.1374 67.1368 16.1636 67.0217 16.7306C66.7525 18.0597 66.5434 19.4026 66.3381 20.7442C66.2642 21.2223 65.9988 21.3925 65.5581 21.4163C63.6602 21.5164 61.776 21.8368 59.8567 21.5664C58.6924 21.4025 57.5469 21.241 56.4251 20.8518C54.402 20.1497 52.8846 18.8832 51.8405 17.0297C51.2721 16.1649 51.1381 15.1624 51.043 14.1787C50.899 12.6782 51.1256 11.2014 51.5901 9.76215C51.8317 9.01875 52.2599 8.38924 52.7331 7.781Z" fill="#727272"/>
  <path d="M73.1863 0.00654646C74.5071 -0.0998323 76.0094 1.10162 75.9569 2.78241C75.9068 4.39186 74.447 5.47191 73.1487 5.42561C71.6226 5.37054 70.4708 4.17534 70.4758 2.54837C70.4808 1.13166 71.6839 0.00404342 73.1863 0.00654646Z" fill="#727272"/>
  <path d="M178.916 20.5439C177.79 17.6354 176.641 14.7344 175.541 11.8158C174.628 9.39414 173.775 6.95118 172.892 4.51823C172.814 4.30547 172.747 4.11524 172.431 4.12275C170.079 4.17782 167.731 3.92376 165.376 4.00761C164.98 4.02138 164.708 4.17281 164.545 4.53075C164.273 5.13022 164.022 5.73971 163.719 6.32292C162.835 8.02623 161.891 9.69951 161.042 11.4191C159.48 14.5842 157.815 17.6929 156.053 20.7529C155.809 21.1784 155.874 21.3061 156.381 21.3023C158.467 21.2823 160.554 21.2835 162.64 21.3048C163.04 21.3086 163.237 21.1559 163.388 20.8117C163.83 19.8143 164.311 18.8343 164.745 17.8331C164.882 17.5202 165.043 17.4113 165.389 17.4151C166.974 17.4339 168.56 17.4451 170.145 17.4051C170.672 17.3913 170.886 17.5365 171.04 18.0546C171.232 18.7017 171.491 19.3299 171.677 19.9845C172.051 21.2998 172.067 21.2948 173.42 21.2948C175.11 21.2948 176.799 21.2948 178.489 21.2948C178.695 21.2948 178.9 21.2948 179.197 21.2948C179.074 20.9631 178.998 20.7529 178.916 20.5439ZM166.821 12.7507C167.36 11.5367 167.879 10.3628 168.484 8.99866C168.883 10.3578 169.229 11.5367 169.584 12.7507C168.66 12.7507 167.79 12.7507 166.821 12.7507Z" fill="#727272"/>
  <path d="M134.506 21.2923C132.145 21.2923 129.873 21.2873 127.602 21.2973C127.224 21.2985 127.144 21.0282 127.089 20.7779C126.444 17.8494 125.711 14.9433 124.946 12.0448C124.833 11.6206 124.963 11.4766 125.422 11.5054C126.292 11.5605 127.149 11.5405 127.954 11.0787C128.543 10.742 128.758 10.2864 128.69 9.64567C128.628 9.03994 128.23 8.86723 127.691 8.7646C126.771 8.58939 125.85 8.5143 124.915 8.52557C124.514 8.53057 124.347 8.70203 124.337 9.07623C124.336 9.11753 124.334 9.16008 124.336 9.20138C124.426 11.1988 124.195 13.1875 124.19 15.1836C124.185 17.0897 124.033 18.9957 123.962 20.9018C123.95 21.1959 123.864 21.2998 123.565 21.2973C121.604 21.2873 119.644 21.2848 117.683 21.2985C117.316 21.301 117.27 21.1133 117.295 20.8292C117.389 19.7366 117.463 18.6378 117.596 17.554C117.688 16.7931 117.711 16.0246 117.755 15.2712C117.838 13.8445 117.889 12.409 117.959 10.981C118.064 8.85847 118.016 6.7409 118.044 4.62084C118.05 4.17905 118.175 3.99508 118.655 4.00134C120.594 4.02512 122.541 3.91248 124.471 4.03763C126.388 4.16153 128.306 4.00009 130.21 4.15277C131.95 4.29169 133.592 4.78103 134.643 6.3642C135.795 8.09755 135.509 10.8997 134.055 12.394C133.529 12.9347 132.957 13.4077 132.29 13.7481C131.968 13.9121 131.966 14.0635 132.068 14.3814C132.781 16.5916 133.563 18.778 134.369 20.9544C134.401 21.0295 134.431 21.102 134.506 21.2923Z" fill="#727272"/>
  <path d="M116.438 20.7155C116.131 20.0209 115.883 19.3 115.601 18.5942C113.783 14.0337 112.171 9.39679 110.482 4.78871C110.205 4.03404 109.841 3.88261 109.135 3.87135C106.491 3.8313 103.848 3.86134 101.203 3.79501C96.3149 3.67236 91.421 3.74119 86.5296 3.76872C84.9572 3.77748 83.5149 4.203 82.2116 5.18919C80.2285 6.68976 79.7378 9.52319 81.498 11.6182C82.3894 12.6795 83.4748 13.4892 84.5014 14.3853C84.9897 14.8108 85.6107 15.1262 85.9111 15.757C86.1941 16.349 86.0151 16.7056 85.3716 16.7657C84.7756 16.822 84.1697 16.8058 83.5813 16.9009C82.8151 17.0248 82.0401 16.9409 81.2839 17.0423C79.8079 17.2413 78.3306 17.0736 76.857 17.1487C76.6304 17.1599 76.4839 17.0736 76.5315 16.8233C76.8157 15.3014 76.5841 13.7608 76.718 12.2265C76.8658 10.5382 76.8683 8.83486 77.1312 7.15282C77.185 6.80991 77.1049 6.61967 76.6792 6.62343C74.6348 6.64345 72.5904 6.6372 70.5447 6.62844C70.2317 6.62718 70.0777 6.70978 70.104 7.04769C70.2029 8.35928 69.93 9.65835 69.9725 10.9699C70.0076 12.09 69.8686 13.2089 69.8185 14.3265C69.786 15.0687 69.771 15.8183 69.7121 16.5617C69.5994 18.0035 69.478 19.4439 69.3566 20.8844C69.3328 21.1648 69.4091 21.2987 69.7271 21.2987C71.1819 21.2999 72.6354 21.2749 74.0914 21.4088C75.3722 21.5265 76.663 21.4201 77.9537 21.5165C79.6927 21.6454 81.4442 21.5415 83.1932 21.6441C84.4514 21.718 85.7208 21.7067 86.9916 21.564C88.8345 21.3575 90.5133 20.8844 91.8003 19.4577C93.1888 17.9171 93.4842 15.5017 92.042 13.6945C90.9778 12.3604 89.5543 11.4693 88.2811 10.3905C87.8717 10.0438 87.2357 9.71092 87.3997 9.13147C87.585 8.47692 88.3262 8.55952 88.8908 8.5395C89.8873 8.50321 90.8864 8.64463 91.8767 8.63837C94.2529 8.62585 96.6216 8.85864 98.9953 8.77478C99.5837 8.75351 99.5637 8.99255 99.3446 9.39679C98.9415 10.1402 98.5496 10.8886 98.1515 11.6345C97.5017 12.8522 96.847 14.0674 96.1997 15.2877C95.2056 17.1637 94.159 19.0084 93.0473 20.8169C92.8157 21.1936 92.9208 21.3025 93.349 21.2999C95.56 21.2849 97.7722 21.2899 99.9844 21.2974C100.239 21.2987 100.357 21.2411 100.471 20.9721C100.928 19.8907 101.445 18.8357 101.927 17.7657C102.044 17.5066 102.203 17.4102 102.492 17.4127C104.245 17.4253 105.997 17.4253 107.75 17.4115C108.028 17.409 108.137 17.4978 108.222 17.7594C108.555 18.7756 108.968 19.7681 109.25 20.7968C109.372 21.2386 109.564 21.3024 109.937 21.2987C110.959 21.2862 111.982 21.2949 113.005 21.2937C114.006 21.2937 115.008 21.2737 116.009 21.3012C116.496 21.315 116.659 21.2186 116.438 20.7155ZM106.451 12.7759C105.81 12.7396 105.165 12.7521 104.521 12.7721C104.188 12.7821 104.086 12.6257 104.206 12.3654C104.693 11.3129 105.204 10.2728 105.782 9.06889C106.064 9.91992 106.297 10.6083 106.518 11.2991C106.618 11.6107 106.67 11.9386 106.795 12.239C106.954 12.6182 106.953 12.8047 106.451 12.7759Z" fill="#727272"/>
  <defs>
    <clipPath id="clip0_0_1">
      <rect width="39" height="40" fill="white"/>
    </clipPath>
  </defs>
</svg>
